<?xml version="1.0" encoding="UTF-8"?>
<svg id="uuid-88fea02b-f860-4abf-8c7c-96602c0dce71" data-name="Calque 1" xmlns="http://www.w3.org/2000/svg" viewBox="0 0 142.21 145.28">
  <defs>
    <style>
      .uuid-e9f29d44-d80c-4010-beeb-8aeead90b088 {
        stroke-dasharray: 0 0 .5 .5;
      }

      .uuid-e9f29d44-d80c-4010-beeb-8aeead90b088, .uuid-72f793d0-e8f0-4cca-923b-b390d686ad7e, .uuid-f03d6713-8ceb-45d6-aed5-75bf35f924a5, .uuid-311e253e-cd46-4bb4-ae2f-66aaf7ae3e79, .uuid-dfc5a00c-8987-4589-ade4-cd7b9f2fd028, .uuid-93a08912-69c3-4881-b982-e2f2d048ea1b, .uuid-8dabbff4-8a9e-420a-a56d-ef3fb0a27f0b, .uuid-4d36d5a9-ad55-42ec-be06-cfd0a10b3a46, .uuid-48c80573-b38b-4325-9d59-e54e842957fd, .uuid-15990f46-cdf8-4e5c-98f4-e85d17989db6 {
        fill: none;
        stroke: #1d1d1b;
        stroke-miterlimit: 10;
        stroke-width: .5px;
      }

      .uuid-72f793d0-e8f0-4cca-923b-b390d686ad7e {
        stroke-dasharray: 0 0 .5 .5;
      }

      .uuid-f03d6713-8ceb-45d6-aed5-75bf35f924a5 {
        stroke-dasharray: 0 0 .5 .5;
      }

      .uuid-311e253e-cd46-4bb4-ae2f-66aaf7ae3e79 {
        stroke-dasharray: 0 0 .5 .5;
      }

      .uuid-dfc5a00c-8987-4589-ade4-cd7b9f2fd028 {
        stroke-dasharray: 0 0 .5 .5;
      }

      .uuid-09bca203-3b48-45ee-afee-eceb5df42c28 {
        fill: #dadada;
      }

      .uuid-93a08912-69c3-4881-b982-e2f2d048ea1b {
        stroke-dasharray: 0 0 .5 .5;
      }

      .uuid-8dabbff4-8a9e-420a-a56d-ef3fb0a27f0b {
        stroke-dasharray: 0 0 .5 .5;
      }

      .uuid-4d36d5a9-ad55-42ec-be06-cfd0a10b3a46 {
        stroke-dasharray: 0 0 .5 .5;
      }

      .uuid-48c80573-b38b-4325-9d59-e54e842957fd {
        stroke-dasharray: 0 0 .5 .5;
      }

      .uuid-15990f46-cdf8-4e5c-98f4-e85d17989db6 {
        stroke-dasharray: 0 0 .5 .5;
      }

      .uuid-e539f253-4a8d-439d-9dcc-afe01c83fd08 {
        fill: #1d1d1b;
      }
    </style>
  </defs>
  <g>
    <g>
      <rect class="uuid-09bca203-3b48-45ee-afee-eceb5df42c28" x="38.12" y="4.08" width="83.36" height="97.47" rx="6.84" ry="6.84" transform="translate(5.65 113.31) rotate(-72.71)"/>
      <path class="uuid-e539f253-4a8d-439d-9dcc-afe01c83fd08" d="M107.41,105.07c-13.88-4.3-49.26-15.26-62.67-19.41,0,0-10.45-3.24-10.45-3.24,0,0-5.22-1.62-5.22-1.62-1.75-.5-3.6-1.08-4.82-2.53-1.96-2.1-2.19-5.24-1.13-7.81,0,0,.81-2.61,.81-2.61,0,0,3.24-10.44,3.24-10.44,4.7-15.06,11.5-37.22,16.18-52.22,.98-3.73,5.24-6.09,8.92-4.85,13.87,4.34,49.22,15.39,62.61,19.59,0,0,10.44,3.26,10.44,3.26l5.22,1.63c3.76,.76,6.88,3.59,6.56,7.67-.13,1.57-1.03,3.76-1.45,5.29-2.06,6.58-7.66,24.49-9.79,31.31,0,0-6.53,20.87-6.53,20.87l-3.26,10.44c-.96,3.61-5.08,5.88-8.64,4.68h0Zm0,0c3.55,1.19,7.66-1.07,8.61-4.69,0,0,3.24-10.44,3.24-10.44,0,0,6.47-20.89,6.47-20.89,2.13-6.89,7.64-24.67,9.7-31.34,.37-1.46,1.33-3.73,1.43-5.24,.29-3.94-2.74-6.69-6.41-7.4,0,0-5.22-1.62-5.22-1.62,0,0-10.45-3.24-10.45-3.24C101.52,16.11,65.82,5.06,52.11,.81c-3.43-1.15-7.4,1.02-8.32,4.51-4.7,14.97-11.61,37.15-16.32,52.18,0,0-3.26,10.44-3.26,10.44,0,0-.82,2.61-.82,2.61-1.03,2.52-.84,5.51,1.06,7.56,1.2,1.43,2.96,1.97,4.7,2.48,0,0,5.22,1.63,5.22,1.63l10.44,3.26c13.25,4.15,48.91,15.3,62.61,19.59h0Z"/>
    </g>
    <rect class="uuid-8dabbff4-8a9e-420a-a56d-ef3fb0a27f0b" x="47.09" y="4.36" width="12.51" height="14.1" rx="2.04" ry="2.04" transform="translate(26.59 58.95) rotate(-72.71)"/>
    <rect class="uuid-48c80573-b38b-4325-9d59-e54e842957fd" x="92.71" y="-11.8" width="7.4" height="73.24" rx="2.04" ry="2.04" transform="translate(44.06 109.5) rotate(-72.71)"/>
    <rect class="uuid-311e253e-cd46-4bb4-ae2f-66aaf7ae3e79" x="46.86" y="15.05" width="61.28" height="88.78" rx="2.04" ry="2.04" transform="translate(-2.29 115.77) rotate(-72.71)"/>
  </g>
  <g>
    <g>
      <rect class="uuid-09bca203-3b48-45ee-afee-eceb5df42c28" x="39.38" y="37.5" width="83.36" height="97.47" rx="6.84" ry="6.84" transform="translate(-35.62 106.03) rotate(-56.4)"/>
      <path class="uuid-e539f253-4a8d-439d-9dcc-afe01c83fd08" d="M92.89,144.13c-12.11-8.03-42.99-28.47-54.7-36.23,0,0-9.12-6.04-9.12-6.04,0,0-4.56-3.02-4.56-3.02-1.54-.97-3.15-2.05-3.91-3.78-1.29-2.56-.63-5.64,1.1-7.81,0,0,1.51-2.28,1.51-2.28l6.04-9.12c8.74-13.13,21.49-32.49,30.19-45.58,1.99-3.3,6.74-4.37,9.92-2.15,12.09,8.06,42.91,28.59,54.6,36.38,0,0,9.1,6.06,9.1,6.06,0,0,4.55,3.03,4.55,3.03,3.37,1.75,5.61,5.42,4.14,9.21-.57,1.47-2.04,3.32-2.88,4.67-3.82,5.74-14.23,21.35-18.19,27.3,0,0-12.13,18.2-12.13,18.2,0,0-6.06,9.1-6.06,9.1-1.94,3.2-6.53,4.22-9.6,2.06h0Zm0,0c3.07,2.13,7.65,1.12,9.58-2.08,0,0,6.04-9.12,6.04-9.12l12.08-18.23c3.97-6.01,14.26-21.53,18.11-27.35,.77-1.3,2.33-3.21,2.84-4.63,1.39-3.7-.75-7.19-4.07-8.9,0,0-4.56-3.02-4.56-3.02l-9.12-6.04c-11.57-7.67-42.73-28.3-54.7-36.23-2.97-2.07-7.39-1.1-9.26,1.99-8.72,13.05-21.57,32.4-30.32,45.5,0,0-6.06,9.1-6.06,9.1l-1.52,2.27c-1.69,2.13-2.36,5.05-1.11,7.55,.75,1.71,2.29,2.73,3.82,3.7,0,0,4.55,3.03,4.55,3.03l9.1,6.06c11.55,7.7,42.65,28.42,54.6,36.38h0Z"/>
    </g>
    <rect class="uuid-72f793d0-e8f0-4cca-923b-b390d686ad7e" x="58.42" y="33.91" width="55.32" height="89.52" rx="2.04" ry="2.04" transform="translate(-27.08 106.84) rotate(-56.4)"/>
    <rect class="uuid-dfc5a00c-8987-4589-ade4-cd7b9f2fd028" x="25.73" y="82.86" width="16.51" height="16.51" rx="2.04" ry="2.04" transform="translate(-60.71 69.01) rotate(-56.4)"/>
    <rect class="uuid-93a08912-69c3-4881-b982-e2f2d048ea1b" x="63.58" y="80.43" width="16.51" height="71.65" rx="2.04" ry="2.04" transform="translate(-64.75 111.76) rotate(-56.4)"/>
  </g>
  <g>
    <g>
      <rect class="uuid-09bca203-3b48-45ee-afee-eceb5df42c28" x="6.93" y="33.66" width="97.47" height="83.36" rx="6.84" ry="6.84" transform="translate(-15.34 14.24) rotate(-12.83)"/>
      <path class="uuid-e539f253-4a8d-439d-9dcc-afe01c83fd08" d="M105.77,106.68c-14.16,3.25-50.26,11.52-63.95,14.66,0,0-10.66,2.44-10.66,2.44l-5.33,1.22c-1.76,.45-3.66,.88-5.44,.23-2.74-.83-4.52-3.43-4.9-6.18,0,0-.61-2.66-.61-2.66,0,0-2.44-10.66-2.44-10.66C8.96,90.34,3.72,67.75,.23,52.43c-1.02-3.72,1.48-7.9,5.28-8.67,14.17-3.21,50.3-11.38,63.99-14.48,0,0,10.67-2.41,10.67-2.41,0,0,5.33-1.21,5.33-1.21,3.63-1.23,7.76-.35,9.53,3.34,.67,1.42,1,3.77,1.4,5.3,1.52,6.72,5.66,25.03,7.24,32,0,0,4.83,21.33,4.83,21.33s2.41,10.67,2.41,10.67c.98,3.61-1.44,7.64-5.12,8.38h0Zm0,0c3.66-.76,6.09-4.77,5.09-8.37,0,0-2.44-10.66-2.44-10.66,0,0-4.89-21.32-4.89-21.32-1.62-7.02-5.77-25.17-7.33-31.97-.41-1.45-.72-3.89-1.39-5.25-1.72-3.56-5.73-4.41-9.25-3.19,0,0-5.33,1.22-5.33,1.22,0,0-10.66,2.44-10.66,2.44-13.53,3.1-49.96,11.45-63.95,14.66-3.54,.72-5.89,4.59-4.94,8.08,3.44,15.31,8.6,37.96,12.06,53.32,0,0,2.41,10.66,2.41,10.66,0,0,.6,2.67,.6,2.67,.37,2.69,2.03,5.19,4.71,6.01,1.75,.63,3.55,.22,5.31-.22,0,0,5.33-1.21,5.33-1.21l10.66-2.41c13.54-3.06,49.99-11.31,63.99-14.48h0Z"/>
    </g>
    <rect class="uuid-e9f29d44-d80c-4010-beeb-8aeead90b088" x="8.14" y="41.21" width="56.5" height="53.74" rx="2.04" ry="2.04" transform="translate(-14.21 9.78) rotate(-12.83)"/>
    <rect class="uuid-4d36d5a9-ad55-42ec-be06-cfd0a10b3a46" x="63.02" y="31.35" width="30.11" height="25.63" rx="2.04" ry="2.04" transform="translate(-7.86 18.44) rotate(-12.83)"/>
    <rect class="uuid-4d36d5a9-ad55-42ec-be06-cfd0a10b3a46" x="69.27" y="58.76" width="30.11" height="25.63" rx="2.04" ry="2.04" transform="translate(-13.79 20.51) rotate(-12.83)"/>
    <rect class="uuid-f03d6713-8ceb-45d6-aed5-75bf35f924a5" x="16.8" y="96.36" width="56.5" height="19.42" rx="2.04" ry="2.04" transform="translate(-22.43 12.65) rotate(-12.83)"/>
    <rect class="uuid-15990f46-cdf8-4e5c-98f4-e85d17989db6" x="81.08" y="87.09" width="17.55" height="17.55" rx="2.04" ry="2.04" transform="translate(-19.04 22.35) rotate(-12.83)"/>
  </g>
</svg>